<?xml version="1.0" encoding="utf-8"?>
<!-- Generator: Adobe Illustrator 16.0.4, SVG Export Plug-In . SVG Version: 6.00 Build 0)  -->
<!DOCTYPE svg PUBLIC "-//W3C//DTD SVG 1.1//EN" "http://www.w3.org/Graphics/SVG/1.1/DTD/svg11.dtd">
<svg version="1.1" id="Layer_1" xmlns="http://www.w3.org/2000/svg" xmlns:xlink="http://www.w3.org/1999/xlink" x="0px" y="0px"
	 width="599.925px" height="198.976px" viewBox="0 0 599.925 198.976" enable-background="new 0 0 599.925 198.976"
	 xml:space="preserve">
<g>
	<g>
		<path fill="#FEFEFD" d="M301.511,200.975c-98.624,0-197.247-0.037-295.87,0.127c-4.284,0.007-4.747-1.152-4.739-4.982
			C1.04,132.48,1.043,68.842,0.891,5.204C0.882,1.473,1.812,0.912,5.293,0.913c197.414,0.098,394.828,0.094,592.241,0.023
			c3.218-0.001,4.53,0.168,4.519,4.169c-0.182,63.971-0.166,127.944-0.025,191.916c0.007,3.516-0.822,4.046-4.146,4.042
			C499.091,200.954,400.301,200.975,301.511,200.975z"/>
		<path fill-rule="evenodd" clip-rule="evenodd" fill="#FAB041" d="M305.94,112.949c22.811-0.004,45.621-0.014,68.432,0.002
			c8.104,0.006,9.574,1.512,9.558,9.59c-0.009,4.163,0.011,8.325,0.001,12.488c-0.015,6.539-2.395,8.94-9.017,8.943
			c-36.464,0.014-72.928,0.004-109.392,0.002c-9.491,0-18.981,0.053-28.472-0.021c-7.146-0.055-9.872-2.87-9.959-10.074
			c-0.044-3.663-0.055-7.327-0.001-10.989c0.108-7.477,2.497-9.913,9.918-9.925C259.985,112.932,282.962,112.953,305.94,112.949z"/>
		<path fill-rule="evenodd" clip-rule="evenodd" fill="#FAB040" d="M130.493,93.152c-22.971,0.007-45.941,0.012-68.912,0.004
			c-7.602-0.003-8.71-1.123-8.686-8.578c0.015-4.826,0.369-9.689-0.096-14.472c-0.523-5.397,2.68-7.051,6.849-7.996
			c1.592-0.361,3.313-0.195,4.975-0.195c44.61-0.009,89.219-0.009,133.828-0.007c8.069,0.001,9.545,1.501,9.541,9.628
			c-0.003,4.827,0.019,9.655,0.006,14.481c-0.015,5.582-1.365,7.035-7.096,7.11c-7.656,0.102-15.314,0.019-22.971,0.019
			C162.119,93.146,146.306,93.146,130.493,93.152z"/>
		<path fill-rule="evenodd" clip-rule="evenodd" fill="#FAB040" d="M476.96,112.949c20.989-0.004,41.979-0.006,62.968-0.002
			c8.626,0,10.758,2.164,10.75,10.883c-0.003,3.665,0.003,7.329,0.002,10.994c-0.002,5.974-2.99,9.137-8.999,9.141
			c-42.978,0.035-85.956,0.044-128.933-0.013c-7.654-0.011-9.917-2.537-9.902-10.308c0.007-3.832,0.001-7.663-0.005-11.494
			c-0.01-7.141,1.797-9.054,9.153-9.17c7.494-0.12,14.992-0.029,22.488-0.029C448.642,112.951,462.801,112.951,476.96,112.949z"/>
		<path fill-rule="evenodd" clip-rule="evenodd" fill="#FBD08F" d="M305.995,194.941c-23.473,0-46.945,0.001-70.418-0.002
			c-5.242,0-9.043-2.373-9.226-7.358c-0.245-6.67-1.426-13.436,1.346-20.133c1.553-3.752,3.719-5.279,7.348-5.347
			c4.825-0.09,9.655-0.013,14.482-0.013c41.285,0,82.569-0.001,123.854-0.002c8.601-0.001,11.453,2.799,11.459,11.253
			c0.004,4.827,0.1,9.657-0.023,14.481c-0.13,5.066-2.32,7.111-7.406,7.114C353.605,194.95,329.8,194.942,305.995,194.941z"/>
		<path fill-rule="evenodd" clip-rule="evenodd" fill="#FCD192" d="M130.272,194.947c-23.646,0.001-47.292,0.006-70.938-0.003
			c-5.858-0.002-7.314-1.433-7.369-7.339c-0.054-5.828-0.048-11.657-0.009-17.485c0.031-4.771,2.76-7.686,7.535-8.024
			c1.822-0.13,3.662-0.02,5.493-0.02c44.627-0.001,89.255-0.004,133.883-0.004c7.968,0,10.099,2.106,10.093,9.938
			c-0.004,4.995,0.018,9.991-0.003,14.986c-0.028,6.712-1.23,7.946-7.748,7.947C177.563,194.95,153.917,194.947,130.272,194.947z"/>
		<path fill-rule="evenodd" clip-rule="evenodd" fill="#FCD08E" d="M475.938,194.938c-21.975,0-43.95,0.002-65.926-0.002
			c-5.86-0.001-7.686-1.447-8.005-7.429c-0.318-5.977-0.254-11.99-0.014-17.974c0.172-4.255,4.501-7.442,9.523-7.443
			c26.471-0.009,52.94,0,79.411,0.002c15.981,0.001,31.964,0.009,47.946-0.014c2.173-0.003,4.312,0.028,6.395,0.788
			c3.861,1.408,6.291,3.382,5.792,8.249c-0.558,5.437-0.094,10.976-0.141,16.469c-0.047,5.609-1.811,7.339-7.558,7.344
			C520.889,194.95,498.414,194.938,475.938,194.938z"/>
		<path fill-rule="evenodd" clip-rule="evenodd" fill="#FBC472" d="M130.398,11.048c23.663-0.001,47.326-0.006,70.989,0.002
			c5.435,0.002,7.26,1.541,7.411,6.821c0.178,6.161,0.133,12.332,0.006,18.495c-0.089,4.317-2.12,6.677-6.832,6.67
			c-47.66-0.064-95.319-0.028-142.979-0.059c-4.962-0.003-6.884-2-6.934-6.976c-0.057-5.666-0.041-11.332,0.003-16.997
			c0.038-4.886,1.898-8.227,7.848-8.124C83.401,11.289,106.902,11.048,130.398,11.048z"/>
		<path fill-rule="evenodd" clip-rule="evenodd" fill="#FBC678" d="M130.446,112.062c22.306,0,44.611-0.002,66.916,0.002
			c1.332,0,2.682-0.104,3.99,0.079c6.097,0.851,7.517,2.538,7.513,8.698c-0.003,4.827,0.015,9.654-0.003,14.482
			c-0.022,5.734-2.84,8.859-8.575,9.452c-1.319,0.137-2.661,0.062-3.992,0.062c-44.278,0.002-88.556,0.004-132.833,0.001
			c-8.92,0-11.438-2.565-11.425-11.607c0.005-3.329,0.004-6.658-0.001-9.987c-0.016-9.123,2.097-11.182,11.495-11.183
			c14.981-0.001,29.962,0.001,44.944,0.001C115.798,112.062,123.122,112.062,130.446,112.062z"/>
		<path fill-rule="evenodd" clip-rule="evenodd" fill="#FBCC85" d="M476.227,94.062c-21.142-0.001-42.285-0.003-63.428-0.001
			c-8.125,0.001-10.854-2.658-10.858-10.594c-0.002-3.662-0.003-7.325,0.001-10.987c0.009-8.108,3.297-11.378,11.583-11.407
			c9.822-0.033,19.644-0.003,29.466-0.003c31.298,0,62.596-0.006,93.894,0.009c1.824,0.001,3.693-0.067,5.464,0.285
			c7.535,1.497,8.562,2.821,8.56,10.417c-0.002,3.996-0.002,7.991,0,11.985c0.005,7.603-2.648,10.289-10.253,10.293
			C519.178,94.07,497.703,94.063,476.227,94.062z"/>
		<path fill-rule="evenodd" clip-rule="evenodd" fill="#FAAF40" d="M306.417,192.012c-23.497-0.001-46.993,0.007-70.489-0.007
			c-6.157-0.004-6.984-0.83-7.014-6.869c-0.023-4.666-0.05-9.333,0.024-13.998c0.064-4.085,1.611-6.315,6.326-6.303
			c46.826,0.124,93.652,0.067,140.479,0.091c5.331,0.003,7.133,1.881,7.173,7.228c0.035,4.832-0.198,9.677,0.071,14.494
			c0.237,4.245-1.544,5.451-5.58,5.429C353.744,191.947,330.08,192.013,306.417,192.012z"/>
		<path fill-rule="evenodd" clip-rule="evenodd" fill="#FAB042" d="M130.501,192.023c-23.314,0-46.63,0.004-69.945-0.003
			c-6.562-0.002-6.561-0.016-6.561-6.771c0-4.496-0.012-8.993-0.001-13.489c0.015-6.03,0.824-6.854,7.014-6.855
			c38.636-0.013,77.273-0.006,115.909-0.005c8.16,0,16.324,0.145,24.479-0.064c3.994-0.102,5.835,1.084,5.62,5.376
			c-0.275,5.481-0.279,10.999-0.002,16.48c0.215,4.258-1.533,5.422-5.569,5.398C177.797,191.954,154.149,192.023,130.501,192.023z"
			/>
		<path fill-rule="evenodd" clip-rule="evenodd" fill="#FAB041" d="M476.512,192.009c-21.801,0.001-43.602,0.008-65.402-0.004
			c-6.402-0.004-7.155-0.776-7.176-7.189c-0.015-4.659-0.069-9.32,0.014-13.979c0.071-3.948,1.819-5.985,6.156-5.977
			c43.935,0.086,87.869,0.084,131.803,0.008c4.585-0.008,6.239,1.982,6.081,6.371c-0.187,5.152-0.261,10.329,0.021,15.472
			c0.235,4.291-1.598,5.389-5.596,5.363C520.446,191.938,498.479,192.009,476.512,192.009z"/>
		<path fill-rule="evenodd" clip-rule="evenodd" fill="#FAB040" d="M130.998,14.007c22.977-0.001,45.955,0.126,68.929-0.102
			c4.927-0.049,6.51,1.612,6.144,6.343c-0.333,4.303-0.071,8.652-0.07,12.982c0.001,7.768,0.001,7.768-7.543,7.768
			c-43.456,0-86.912,0.012-130.367-0.007c-15.75-0.007-13.993,1.641-14.043-14.228c-0.043-13.738-1.181-12.785,12.516-12.764
			C88.042,14.031,109.52,14.008,130.998,14.007z"/>
		<path fill-rule="evenodd" clip-rule="evenodd" fill="#FAAF40" d="M130.459,142.012c-23.16,0.002-46.32,0.01-69.48-0.004
			c-6.116-0.004-6.918-0.827-6.938-6.925c-0.015-4.665,0.226-9.345-0.07-13.992c-0.273-4.289,1.927-6.11,5.646-6.754
			c1.624-0.28,3.31-0.278,4.967-0.279c43.487-0.014,86.975-0.011,130.462-0.011c0.833,0,1.667-0.022,2.499,0.006
			c8.229,0.275,8.646,0.736,8.484,8.631c-0.082,3.997-0.013,7.997-0.015,11.996c-0.003,7.329-0.004,7.33-7.574,7.33
			C175.779,142.01,153.119,142.01,130.459,142.012z"/>
		<path fill-rule="evenodd" clip-rule="evenodd" fill="#FAAF40" d="M476.08,91.989c-21.322,0.001-42.645,0.006-63.967-0.003
			c-6.648-0.003-8.151-1.536-8.159-8.239c-0.004-3.997-0.02-7.996,0.005-11.993c0.036-6.104,2.815-8.739,9.383-8.75
			C430.833,62.976,448.324,63,465.814,63c23.821,0.001,47.643-0.007,71.463,0.01c1.982,0.001,3.93,0.01,5.926,0.538
			c3.467,0.917,4.938,2.806,4.774,6.438c-0.217,4.821-0.039,9.659-0.062,14.489c-0.029,5.908-1.693,7.507-7.868,7.51
			C518.724,91.996,497.402,91.989,476.08,91.989z"/>
	</g>
</g>
</svg>
