<?xml version="1.0" encoding="utf-8"?>
<!-- Generator: Adobe Illustrator 16.0.4, SVG Export Plug-In . SVG Version: 6.00 Build 0)  -->
<!DOCTYPE svg PUBLIC "-//W3C//DTD SVG 1.1//EN" "http://www.w3.org/Graphics/SVG/1.1/DTD/svg11.dtd">
<svg version="1.1" id="Layer_1" xmlns="http://www.w3.org/2000/svg" xmlns:xlink="http://www.w3.org/1999/xlink" x="0px" y="0px"
	 width="359.955px" height="465.941px" viewBox="0 0 359.955 465.941" enable-background="new 0 0 359.955 465.941"
	 xml:space="preserve">
<g>
	<g>
		<path fill="#FEFEFE" d="M1,234.471C1,157.98,1.029,81.49,0.904,5C0.898,1.576,1.576,0.901,5,0.904
			c117.651,0.115,235.304,0.115,352.956,0c3.424-0.003,4.097,0.672,4.094,4.095c-0.109,152.98-0.109,305.961,0,458.942
			c0.003,3.424-0.67,4.099-4.094,4.096c-117.651-0.115-235.304-0.115-352.956,0c-3.423,0.003-4.102-0.672-4.096-4.096
			C1.029,387.451,1,310.961,1,234.471z"/>
		<path fill-rule="evenodd" clip-rule="evenodd" fill="#FAAF40" d="M121.672,102.951c15.505-0.859,31.647,4.904,47.262,12.184
			c13.463,6.277,26.627,6.188,40.042,0.411c19.645-8.459,39.938-13.584,61.557-12.587c31.281,1.441,57.243,13.594,77.567,37.607
			c2.011,2.376,1.396,3.27-0.785,4.862c-15.979,11.669-29.428,25.601-37.078,44.182c-14.964,36.353-4.05,76.982,27.102,101.957
			c6.382,5.118,13.148,9.648,20.391,13.463c1.769,0.931,3.397,1.53,2.331,4.396c-13.705,36.82-33.671,69.345-64.41,94.536
			c-15.523,12.722-32.713,16.435-51.852,9.452c-6.718-2.451-13.6-4.502-20.167-7.296c-19.336-8.228-38.817-8.181-58.483-1.594
			c-5.672,1.899-11.339,3.904-16.805,6.32c-24.771,10.946-46.965,7.094-66.924-11.06c-17.646-16.049-30.151-35.846-41.3-56.583
			c-15.907-29.587-26.445-60.959-29.861-94.484c-2.693-26.431-1.538-52.572,8.361-77.652
			C35.605,128.026,72.653,103.094,121.672,102.951z"/>
		<path fill-rule="evenodd" clip-rule="evenodd" fill="#FAAF40" d="M267.118,21.249c-0.273,42.433-32.101,79.536-74.013,86.429
			c-10.684,1.758-11.107,1.361-11.352-9.403c-0.619-27.267,12.62-47.938,31.596-65.677c13.718-12.823,29.969-20.633,48.724-23.213
			c4.081-0.562,5.433,0.389,5.085,4.384C266.942,16.244,267.118,18.754,267.118,21.249z"/>
	</g>
</g>
</svg>
