<?xml version="1.0" encoding="utf-8"?>
<!-- Generator: Adobe Illustrator 16.0.4, SVG Export Plug-In . SVG Version: 6.00 Build 0)  -->
<!DOCTYPE svg PUBLIC "-//W3C//DTD SVG 1.1//EN" "http://www.w3.org/Graphics/SVG/1.1/DTD/svg11.dtd">
<svg version="1.1" id="Layer_1" xmlns="http://www.w3.org/2000/svg" xmlns:xlink="http://www.w3.org/1999/xlink" x="0px" y="0px"
	 width="351.396px" height="407.704px" viewBox="9.006 9.237 351.396 407.704" enable-background="new 9.006 9.237 351.396 407.704"
	 xml:space="preserve">
<g>
	<g>
		<path fill="#FAAF40" d="M121.672,102.951c15.505-0.859,31.647,4.904,47.262,12.184c13.463,6.277,26.627,6.188,40.042,0.411
			c19.646-8.459,39.938-13.584,61.558-12.587c31.28,1.441,57.243,13.594,77.567,37.607c2.01,2.376,1.396,3.27-0.785,4.862
			c-15.979,11.669-29.429,25.601-37.078,44.182c-14.965,36.353-4.051,76.982,27.102,101.957c6.382,5.119,13.148,9.648,20.391,13.463
			c1.77,0.932,3.397,1.53,2.332,4.396c-13.705,36.82-33.672,69.346-64.41,94.536c-15.523,12.722-32.713,16.436-51.853,9.452
			c-6.718-2.451-13.601-4.502-20.167-7.296c-19.336-8.229-38.816-8.181-58.483-1.594c-5.672,1.898-11.339,3.903-16.805,6.319
			c-24.771,10.946-46.965,7.095-66.924-11.06c-17.646-16.049-30.151-35.846-41.3-56.583c-15.907-29.587-26.445-60.959-29.861-94.484
			c-2.693-26.431-1.538-52.572,8.361-77.652C35.605,128.026,72.653,103.094,121.672,102.951z"/>
		<path fill="#FAAF40" d="M267.118,21.249c-0.273,42.433-32.102,79.536-74.014,86.429c-10.684,1.758-11.106,1.361-11.352-9.403
			c-0.619-27.267,12.62-47.938,31.596-65.677c13.719-12.823,29.969-20.633,48.725-23.213c4.08-0.562,5.433,0.389,5.085,4.384
			C266.942,16.244,267.118,18.754,267.118,21.249z"/>
	</g>
</g>
</svg>
