<svg xmlns="http://www.w3.org/2000/svg" style="display: none;">
  
  <symbol id="facebook" viewBox="0 0 199.975 199.975">
    <path d="M1,200.975C1,135.73,1.037,70.487,0.901,5.245C0.894,1.642,1.642,0.894,5.245,0.901
			C70.488,1.037,135.73,1,200.975,1c0.923,1.55,0.478,3.257,0.478,4.885c0.026,63.293,0.022,126.586,0.021,189.878
			c0,5.7-0.009,5.709-5.605,5.71c-17.322,0.005-34.645,0.006-51.967,0c-6.347-0.002-7.087-0.529-7.136-6.641
			c-0.175-21.818-0.195-43.639,0.009-65.457c0.063-6.827,1.812-8.371,8.743-8.634c3.995-0.15,7.994-0.047,11.991-0.102
			c3.545-0.05,5.438-1.697,6.146-5.231c0.984-4.922,0.983-9.934,1.715-14.875c0.542-3.662-1.606-5.103-5.021-5.183
			c-5.33-0.125-10.662,0.092-15.988-0.147c-5.908-0.265-7.324-1.656-7.582-7.516c-0.219-4.993-0.199-9.995-0.014-14.987
			c0.355-9.57,5.514-14.956,15.111-15.839c3.32-0.306,6.659-0.169,9.989-0.219c3.597-0.054,5.648-1.613,5.729-5.376
			c0.086-3.997,0.181-7.994-0.066-11.987c-0.146-2.386-1.158-4.438-3.702-4.631c-10.751-0.82-21.552-2.36-32.076,1.663
			c-13.461,5.146-20.821,15.999-21.39,31.866c-0.238,6.659,0.125,13.328-0.188,19.984c-0.25,5.321-1.668,6.696-6.99,7.016
			c-4.325,0.259-8.661,0.142-12.989,0.136c-3.874-0.007-5.921,1.58-5.885,5.64c0.041,4.662,0.022,9.327,0.017,13.989
			c-0.004,3.996,1.97,5.728,5.868,5.71c3.33-0.014,6.662-0.016,9.992,0.056c8.514,0.184,9.967,1.525,10.057,9.917
			c0.15,13.99,0.057,27.981,0.045,41.974c-0.007,7.827,0.108,15.655-0.096,23.482c-0.092,3.545-1.335,5.463-5.37,5.451
			c-33.811-0.102-67.623-0.054-101.434-0.06C2.555,201.472,1.718,201.512,1,200.975z" fill="#FAAF40"/>
  </symbol>
  
</svg>