<?xml version="1.0" encoding="utf-8"?>
<!-- Generator: Adobe Illustrator 16.0.4, SVG Export Plug-In . SVG Version: 6.00 Build 0)  -->
<!DOCTYPE svg PUBLIC "-//W3C//DTD SVG 1.1//EN" "http://www.w3.org/Graphics/SVG/1.1/DTD/svg11.dtd">
<svg version="1.1" id="Layer_1" xmlns="http://www.w3.org/2000/svg" xmlns:xlink="http://www.w3.org/1999/xlink" x="0px" y="0px"
	 width="169.979px" height="169.979px" viewBox="0 0 169.979 169.979" enable-background="new 0 0 169.979 169.979"
	 xml:space="preserve">
<g>
	<g>
		<path fill="#FAAF40" d="M135.492,107.167c-0.936-2.598,0.47-5.897-2.937-5.039c-2.916,0.733-7.362-3.141-8.757,2.925
			c-0.988,4.299-4.438,6.479-8.688,6.863c-4.181,0.377-7.884-0.912-10.071-4.829c-3.389-6.062-3.954-12.277-1.187-18.838
			c2.037-4.828,5.382-7.108,10.586-7.312c5.072-0.199,7.809,2.421,9.597,6.741c0.831,2.008,10.468,3.495,11.593,1.793
			c0.354-0.537,0.051-1.571-0.084-2.355c-1.302-7.556-5.685-12.184-13.07-14.334c-7.053-2.054-13.961-1.908-20.279,1.704
			c-7.208,4.121-10.367,11.057-11.207,19.138c-0.084,0.812-0.173,1.624-0.285,2.432c-0.02,0.129-0.185,0.236-0.484,0.602
			c-0.325-10.874-3.473-20.144-14.189-24.514c-7.774-3.171-14.396-0.026-21.033,5.963c0-5.539,0-10.381,0-15.223
			c0-7.649,0-7.649-7.489-8.106c1.084-3.833,2.794-5.912,7.399-5.888c36.467,0.191,72.934,0.106,109.4,0.106
			c1.311,0,2.618,0,4.812,0C157.808,68.558,146.823,87.564,135.492,107.167z"/>
		<path fill="#FAAF40" d="M90.351,99.282c3.415,19.499,20.523,28.883,39.859,16.677c-2.261,4.536-4.632,8.085-7,11.672
			c-0.989,1.497-2.11,1.34-3.364,1.339c-37.958-0.027-75.917-0.074-113.876-0.123c-0.158,0-0.316-0.085-0.979-0.272
			c12.558-22.062,25.054-44.019,37.582-66.025c1.392,2.644,1.355,5.377,1.459,8.149c0.543,14.616-0.898,29.182-1.005,43.777
			c-0.014,1.865-0.901,4.675,1.671,5.149c3.279,0.604,7.918,1.952,9.786-0.645c2.012-2.795,2.433-1.021,3.882-0.329
			c11.574,5.525,26.813,3.328,31.06-11.423C90.148,104.724,89.491,102.276,90.351,99.282z"/>
		<path fill="#FAAF40" d="M78.991,97.029c-0.015,11.014-4.651,15.82-13.731,14.928c-0.944-0.094-1.908-0.411-2.771-0.818
			c-5.146-2.43-8.58-11.021-7.465-18.55c0.925-6.233,4.868-10.434,11.106-11.505c4.421-0.76,7.73,1.129,9.856,4.987
			C77.986,89.697,79.628,93.461,78.991,97.029z"/>
	</g>
</g>
</svg>
