<?xml version="1.0" encoding="utf-8"?>
<!-- Generator: Adobe Illustrator 16.0.4, SVG Export Plug-In . SVG Version: 6.00 Build 0)  -->
<!DOCTYPE svg PUBLIC "-//W3C//DTD SVG 1.1//EN" "http://www.w3.org/Graphics/SVG/1.1/DTD/svg11.dtd">
<svg version="1.1" id="Layer_1" xmlns="http://www.w3.org/2000/svg" xmlns:xlink="http://www.w3.org/1999/xlink" x="0px" y="0px"
	 width="169.979px" height="169.979px" viewBox="0 0 169.979 169.979" enable-background="new 0 0 169.979 169.979"
	 xml:space="preserve">
<g>
	<g>
		<path fill="#FEFEFE" d="M1,1c55.659,0,111.319,0.04,166.979-0.097c3.425-0.009,4.105,0.672,4.097,4.096
			c-0.138,54.326-0.138,108.653,0,162.979c0.009,3.425-0.672,4.105-4.097,4.098c-54.326-0.139-108.653-0.139-162.979,0
			c-3.425,0.009-4.105-0.673-4.097-4.098C1.04,112.318,1,56.66,1,1z"/>
		<path fill-rule="evenodd" clip-rule="evenodd" fill="#FAAF40" d="M135.492,107.167c-0.935-2.597,0.47-5.897-2.936-5.039
			c-2.916,0.734-7.362-3.14-8.757,2.925c-0.988,4.299-4.438,6.479-8.688,6.863c-4.181,0.377-7.884-0.912-10.072-4.829
			c-3.388-6.062-3.954-12.277-1.186-18.838c2.037-4.828,5.382-7.108,10.586-7.312c5.072-0.199,7.808,2.421,9.596,6.741
			c0.831,2.008,10.468,3.495,11.593,1.793c0.354-0.537,0.051-1.571-0.084-2.356c-1.302-7.555-5.684-12.183-13.07-14.334
			c-7.053-2.053-13.961-1.908-20.279,1.705c-7.208,4.121-10.368,11.056-11.207,19.137c-0.084,0.812-0.173,1.624-0.286,2.432
			c-0.019,0.129-0.184,0.236-0.484,0.601c-0.325-10.874-3.473-20.143-14.189-24.513c-7.775-3.171-14.397-0.027-21.034,5.963
			c0-5.539,0-10.381,0-15.223c0-7.649,0-7.649-7.489-8.106c1.084-3.833,2.794-5.913,7.4-5.888
			c36.466,0.191,72.933,0.106,109.4,0.106c1.31,0,2.618,0,4.811,0C157.808,68.558,146.822,87.564,135.492,107.167z"/>
		<path fill-rule="evenodd" clip-rule="evenodd" fill="#FAAF40" d="M90.351,99.282c3.415,19.499,20.523,28.883,39.859,16.677
			c-2.261,4.536-4.632,8.085-7,11.672c-0.989,1.497-2.11,1.34-3.364,1.339c-37.958-0.027-75.917-0.074-113.876-0.123
			c-0.158,0-0.316-0.085-0.979-0.273c12.558-22.062,25.054-44.018,37.582-66.025c1.392,2.644,1.356,5.377,1.459,8.149
			c0.543,14.617-0.898,29.182-1.004,43.778c-0.014,1.865-0.902,4.675,1.67,5.149c3.28,0.604,7.918,1.952,9.787-0.644
			c2.011-2.795,2.432-1.021,3.881-0.329c11.575,5.525,26.814,3.328,31.06-11.423C90.148,104.724,89.491,102.276,90.351,99.282z"/>
		<path fill-rule="evenodd" clip-rule="evenodd" fill="#FAAF40" d="M78.991,97.029c-0.014,11.013-4.651,15.82-13.731,14.927
			c-0.944-0.093-1.908-0.411-2.771-0.818c-5.147-2.43-8.581-11.021-7.465-18.55c0.924-6.233,4.868-10.433,11.106-11.505
			c4.421-0.76,7.731,1.129,9.857,4.988C77.986,89.697,79.628,93.461,78.991,97.029z"/>
	</g>
</g>
</svg>
