<?xml version="1.0" encoding="utf-8"?>
<!-- Generator: Adobe Illustrator 16.0.4, SVG Export Plug-In . SVG Version: 6.00 Build 0)  -->
<!DOCTYPE svg PUBLIC "-//W3C//DTD SVG 1.1//EN" "http://www.w3.org/Graphics/SVG/1.1/DTD/svg11.dtd">
<svg version="1.1" id="Layer_1" xmlns="http://www.w3.org/2000/svg" xmlns:xlink="http://www.w3.org/1999/xlink" x="0px" y="0px"
	 width="174.458px" height="193.208px" viewBox="18.767 4.876 174.458 193.208"
	 enable-background="new 18.767 4.876 174.458 193.208" xml:space="preserve">
<g>
	<g>
		<path fill="#FAAF40" d="M18.998,59.617c0-14.811,0.117-29.621-0.071-44.431c-0.057-4.471,1.585-7.56,5.38-9.617
			c1.699-0.92,3.554-0.925,5.247-0.019C46.04,14.373,62.645,22.987,78.93,32.166c11.438,6.444,22.997,12.634,34.599,18.762
			c8.727,4.61,9.312,12.448,0.599,16.844C98.893,75.46,84.22,84.157,69.039,91.926c-12.391,6.341-24.659,12.927-36.84,19.66
			c-6.909,3.817-13.789-0.694-13.418-8.048C19.516,88.931,18.998,74.261,18.998,59.617z"/>
		<path fill="#FAAF40" d="M71.71,153.481c0-11.995,0.538-24.023-0.178-35.978c-0.53-8.854,5.638-10.808,12.328-7.411
			c10.838,5.498,21.427,11.486,32.125,17.256c11.687,6.303,23.354,12.635,35.083,18.855c3.036,1.609,5.229,4.433,5.299,7.24
			c0.063,2.584-2.467,4.81-5.405,6.371c-22.495,11.957-44.833,24.21-67.23,36.353c-2.03,1.101-4.111,2.417-6.553,1.723
			c-3.414-0.971-5.674-2.574-5.572-6.923C71.898,178.479,71.71,165.978,71.71,153.481z"/>
		<path fill="#FAAF40" d="M138.67,91.866c0-6.989-0.212-13.986,0.057-20.967c0.293-7.633,3.184-10,9.769-6.191
			c13.9,8.042,28.132,15.508,42.184,23.292c3.414,1.892,3.395,6.009-0.049,7.871c-8.819,4.77-17.659,9.507-26.608,14.027
			c-5.57,2.813-10.696,6.399-16.501,8.838c-5.896,2.478-8.743,1.023-8.829-5.401C138.596,106.179,138.67,99.022,138.67,91.866z"/>
	</g>
</g>
</svg>
