<?xml version="1.0" encoding="utf-8"?>
<!-- Generator: Adobe Illustrator 16.0.4, SVG Export Plug-In . SVG Version: 6.00 Build 0)  -->
<!DOCTYPE svg PUBLIC "-//W3C//DTD SVG 1.1//EN" "http://www.w3.org/Graphics/SVG/1.1/DTD/svg11.dtd">
<svg version="1.1" id="Layer_1" xmlns="http://www.w3.org/2000/svg" xmlns:xlink="http://www.w3.org/1999/xlink" x="0px" y="0px"
	 width="199.975px" height="199.975px" viewBox="0 0 199.975 199.975" enable-background="new 0 0 199.975 199.975"
	 xml:space="preserve">
<g>
	<g>
		<path fill="#FEFEFE" d="M101.501,201.975c-32.309,0-64.618-0.037-96.927,0.065c-2.767,0.009-3.68-0.288-3.673-3.486
			C1.033,133.77,1.025,68.984,0.917,4.2C0.912,1.326,1.626,0.927,4.296,0.93C69.081,1.02,133.865,1.019,198.65,0.935
			c2.61-0.004,3.416,0.302,3.411,3.237c-0.114,64.951-0.106,129.903-0.016,194.853c0.004,2.617-0.737,3.012-3.117,3.005
			C166.453,201.948,133.978,201.975,101.501,201.975z"/>
		<path fill-rule="evenodd" clip-rule="evenodd" fill="#FAAF40" d="M18.998,59.617c0-14.81,0.117-29.621-0.071-44.43
			c-0.057-4.471,1.585-7.56,5.38-9.617c1.699-0.92,3.554-0.925,5.247-0.019c16.486,8.822,33.091,17.436,49.376,26.615
			c11.437,6.445,22.997,12.634,34.599,18.762c8.726,4.61,9.311,12.448,0.598,16.844C98.893,75.46,84.22,84.157,69.039,91.926
			c-12.39,6.341-24.659,12.927-36.84,19.66c-6.909,3.818-13.789-0.694-13.418-8.048C19.516,88.931,18.998,74.261,18.998,59.617z"/>
		<path fill-rule="evenodd" clip-rule="evenodd" fill="#FAAF40" d="M71.71,153.481c0-11.995,0.538-24.024-0.178-35.978
			c-0.53-8.853,5.638-10.807,12.329-7.411c10.837,5.498,21.426,11.486,32.125,17.256c11.686,6.303,23.354,12.635,35.083,18.855
			c3.036,1.61,5.229,4.433,5.298,7.241c0.064,2.584-2.466,4.809-5.405,6.371c-22.495,11.957-44.833,24.21-67.23,36.352
			c-2.031,1.101-4.112,2.417-6.553,1.723c-3.414-0.971-5.674-2.574-5.572-6.923C71.898,178.479,71.71,165.978,71.71,153.481z"/>
		<path fill-rule="evenodd" clip-rule="evenodd" fill="#FAAF40" d="M138.67,91.866c0-6.989-0.212-13.986,0.057-20.966
			c0.293-7.633,3.183-10,9.768-6.192C162.396,72.75,176.627,80.216,190.679,88c3.414,1.892,3.394,6.009-0.049,7.871
			c-8.819,4.77-17.659,9.507-26.608,14.028c-5.571,2.813-10.697,6.399-16.501,8.838c-5.897,2.477-8.743,1.023-8.829-5.402
			C138.596,106.179,138.67,99.022,138.67,91.866z"/>
	</g>
</g>
</svg>
