<?xml version="1.0" encoding="utf-8"?>
<!-- Generator: Adobe Illustrator 16.0.4, SVG Export Plug-In . SVG Version: 6.00 Build 0)  -->
<!DOCTYPE svg PUBLIC "-//W3C//DTD SVG 1.1//EN" "http://www.w3.org/Graphics/SVG/1.1/DTD/svg11.dtd">
<svg version="1.1" id="Layer_1" xmlns="http://www.w3.org/2000/svg" xmlns:xlink="http://www.w3.org/1999/xlink" x="0px" y="0px"
	 width="199.975px" height="199.975px" viewBox="0 0 199.975 199.975" enable-background="new 0 0 199.975 199.975"
	 xml:space="preserve">
<g>
	<path fill="#FAAF40" d="M1,200.975c33.819,0,67.64-0.088,101.459,0.104c4.414,0.024,5.568-1.112,5.525-5.524
		c-0.217-22.655-0.136-45.314,0.009-67.972c0.021-3.236-0.883-4.505-4.188-4.41c-5.993,0.172-11.997-0.035-17.991,0.093
		c-2.987,0.064-4.332-0.328-4.086-4.092c0.478-7.293,0.302-14.656-0.085-21.964c-0.18-3.404,1.157-3.987,3.98-3.937
		c5.662,0.104,11.338-0.165,16.988,0.113c3.95,0.194,5.46-0.755,5.412-5.161c-0.098-9.288-0.728-18.604,0.86-27.885
		c2.635-15.392,15.389-26.897,30.984-28.532c8.882-0.932,17.626,0.462,26.433,0.188c2.807-0.088,3.771,1.192,3.717,3.939
		c-0.128,6.494-0.157,12.996,0.019,19.49c0.074,2.806-0.812,3.738-3.659,3.763c-5.642,0.052-11.309-0.583-16.929,0.634
		c-6.968,1.507-10.085,4.775-10.367,11.897c-0.236,5.989,0.045,11.997-0.121,17.989c-0.082,2.958,1.217,3.679,3.897,3.634
		c7.162-0.121,14.327,0.011,21.49-0.068c3.196-0.034,4.802,0.281,3.94,4.479c-1.498,7.295-2.121,14.779-2.936,22.204
		c-0.301,2.745-1.405,3.473-4.158,3.354c-6.152-0.265-12.325,0.014-18.487-0.111c-2.812-0.058-3.749,0.987-3.739,3.803
		c0.075,23.49,0.079,46.98-0.037,70.471c-0.016,3.02,1.196,3.551,3.84,3.539c18.159-0.082,36.32-0.156,54.479,0.053
		c3.926,0.045,3.75-1.979,3.745-4.644c-0.038-21.491-0.021-42.982-0.021-64.474c0-43.649,0.001-87.3,0.001-130.947c0,0,0,0,0.001,0
		c-0.001,0-0.001,0-0.001-0.001C135.73,1,70.488,1.037,5.245,0.901C1.642,0.894,0.894,1.642,0.901,5.245
		C1.037,70.487,1,135.73,1,200.975z"/>
	<rect x="0" y="0" fill="#FAAF40" width="25.33" height="199.975"/>
	<rect x="0" y="0" fill="#FAAF40" width="199.975" height="13.668"/>
</g>
<rect x="0" y="0" fill="#FAAF40" width="199.975" height="13.668"/>
<rect x="183.09" y="0" fill="#FAAF40" width="16.885" height="199.975"/>
<rect x="0" y="0" fill="#FAAF40" width="19.583" height="199.975"/>
</svg>
