<?xml version="1.0" encoding="utf-8"?>
<!-- Generator: Adobe Illustrator 16.0.4, SVG Export Plug-In . SVG Version: 6.00 Build 0)  -->
<!DOCTYPE svg PUBLIC "-//W3C//DTD SVG 1.1//EN" "http://www.w3.org/Graphics/SVG/1.1/DTD/svg11.dtd">
<svg version="1.1" id="Layer_1" xmlns="http://www.w3.org/2000/svg" xmlns:xlink="http://www.w3.org/1999/xlink" x="0px" y="0px"
	 width="480.004px" height="511.962px" viewBox="16.992 1 480.004 511.962" enable-background="new 16.992 1 480.004 511.962"
	 xml:space="preserve">
<g>
	<g>
		<path fill="#FAAF40" d="M66.992,1c34.185,6.303,62.377,25.957,92.157,41.86c67.97,36.296,135.581,73.263,203.338,109.955
			c5.174,2.8,5.184,2.793,1.179,6.816c-23.749,23.854-47.519,47.685-71.216,71.59c-2.126,2.146-3.395,3.337-6.229,0.49
			C209.54,154.746,132.758,77.882,55.993,1C59.659,1,63.326,1,66.992,1z"/>
		<path fill="#FAAF40" d="M17.001,256.983c0-64.65-0.026-129.302,0.021-193.955c0.01-13.737,1.65-27.236,7.153-40.004
			c2.419-5.613,2.52-5.596,6.692-1.426c77.187,77.163,154.346,154.354,231.649,231.399c3.543,3.53,3.131,5.142-0.16,8.418
			C185.131,338.305,108.025,415.312,30.897,492.3c-4.212,4.203-4.3,4.227-6.709-1.355c-5.441-12.605-7.149-25.934-7.161-39.502
			C16.969,386.622,17.001,321.803,17.001,256.983z"/>
		<path fill="#FAAF40" d="M56.894,512.788c0.547-2.053,2.077-2.901,3.197-4.022c74.955-75.083,149.959-150.116,224.826-225.288
			c3.396-3.41,5.031-3.457,8.421-0.006c23.452,23.889,47.104,47.581,70.833,71.195c2.971,2.956,2.855,4.104-0.857,6.108
			c-80.648,43.551-161.217,87.248-241.856,130.814c-15.214,8.22-30.535,16.345-47.737,19.794
			C68.244,512.482,62.703,513.345,56.894,512.788z"/>
		<path fill="#FAAF40" d="M496.996,258.071c-0.569,15.486-9.172,27.369-20.7,37.627c-11.544,10.271-25.113,17.41-38.59,24.685
			c-12.294,6.636-24.598,13.254-36.788,20.076c-2.777,1.555-4.479,1.463-6.808-0.881c-26.405-26.578-52.895-53.076-79.479-79.476
			c-2.396-2.379-2.14-3.572,0.082-5.797c26.478-26.507,52.86-53.107,79.239-79.711c1.849-1.865,3.269-3.243,6.302-1.544
			c19.296,10.812,38.839,21.185,58.047,32.147c10.736,6.128,20.409,13.8,28.063,23.704
			C492.838,237.276,496.9,246.566,496.996,258.071z"/>
	</g>
</g>
</svg>
