<?xml version="1.0" encoding="utf-8"?>
<!-- Generator: Adobe Illustrator 16.0.4, SVG Export Plug-In . SVG Version: 6.00 Build 0)  -->
<!DOCTYPE svg PUBLIC "-//W3C//DTD SVG 1.1//EN" "http://www.w3.org/Graphics/SVG/1.1/DTD/svg11.dtd">
<svg version="1.1" id="Layer_1" xmlns="http://www.w3.org/2000/svg" xmlns:xlink="http://www.w3.org/1999/xlink" x="0px" y="0px"
	 width="511.936px" height="511.936px" viewBox="0 0 511.936 511.936" enable-background="new 0 0 511.936 511.936"
	 xml:space="preserve">
<g>
	<g>
		<path fill="#FEFEFE" d="M66.992,1c147.481,0,294.962,0.017,442.444-0.094c3.749-0.003,4.596,0.844,4.594,4.593
			c-0.108,167.979-0.108,335.958,0,503.936c0.002,3.748-0.844,4.597-4.593,4.594c-167.979-0.108-335.958-0.108-503.937,0
			c-3.748,0.002-4.596-0.843-4.594-4.594c0.108-167.978,0.108-335.957,0-503.935C0.904,1.753,1.74,0.845,5.5,0.897
			C22.328,1.133,39.162,1,55.993,1c2.595,1.263,4.544,3.31,6.547,5.312c73.498,73.513,147.005,147.017,220.51,220.521
			c1.179,1.177,2.35,2.363,3.562,3.505c1.649,1.552,3.23,1.453,4.813-0.096c0.715-0.699,1.434-1.394,2.141-2.101
			c22.5-22.498,45.002-44.994,67.495-67.499c4.683-4.685,4.569-4.789-1.14-7.881c-26.206-14.196-52.413-28.389-78.612-42.596
			c-21.661-11.747-43.335-23.471-65.019-35.18c-26.956-14.557-53.885-29.164-80.825-43.75C119.22,22.44,103.111,13.314,85.646,7.021
			C80.627,5.213,75.46,3.906,70.159,3.15C68.842,2.962,66.941,3.33,66.992,1z"/>
		<path fill-rule="evenodd" clip-rule="evenodd" fill="#FAAF40" d="M66.992,1c34.185,6.303,62.377,25.957,92.157,41.86
			c67.97,36.296,135.58,73.263,203.339,109.955c5.173,2.8,5.183,2.793,1.178,6.816c-23.749,23.854-47.519,47.685-71.216,71.59
			c-2.126,2.146-3.394,3.337-6.229,0.49C209.54,154.746,132.758,77.882,55.993,1C59.659,1,63.326,1,66.992,1z"/>
		<path fill-rule="evenodd" clip-rule="evenodd" fill="#FAAF40" d="M17.001,256.984c0-64.651-0.026-129.303,0.021-193.955
			c0.01-13.737,1.65-27.236,7.153-40.004c2.419-5.613,2.52-5.596,6.692-1.426c77.187,77.163,154.346,154.354,231.65,231.399
			c3.543,3.531,3.131,5.142-0.16,8.418C185.131,338.305,108.025,415.313,30.897,492.3c-4.212,4.203-4.3,4.226-6.709-1.356
			c-5.441-12.605-7.149-25.933-7.161-39.502C16.969,386.622,17.001,321.803,17.001,256.984z"/>
		<path fill-rule="evenodd" clip-rule="evenodd" fill="#FAAF40" d="M56.894,512.788c0.547-2.053,2.077-2.901,3.197-4.022
			c74.955-75.083,149.959-150.117,224.826-225.289c3.397-3.41,5.031-3.457,8.421-0.005c23.452,23.888,47.104,47.581,70.833,71.195
			c2.97,2.956,2.856,4.104-0.858,6.108c-80.648,43.551-161.217,87.248-241.856,130.815c-15.214,8.22-30.535,16.345-47.737,19.794
			C68.244,512.482,62.703,513.345,56.894,512.788z"/>
		<path fill-rule="evenodd" clip-rule="evenodd" fill="#FAAF40" d="M496.996,258.071c-0.569,15.486-9.172,27.37-20.7,37.627
			c-11.544,10.271-25.113,17.41-38.59,24.685c-12.294,6.636-24.598,13.254-36.788,20.076c-2.777,1.555-4.479,1.463-6.807-0.881
			c-26.406-26.578-52.895-53.076-79.48-79.476c-2.396-2.379-2.14-3.572,0.082-5.797c26.477-26.507,52.86-53.107,79.239-79.711
			c1.849-1.865,3.269-3.243,6.302-1.544c19.296,10.812,38.839,21.185,58.047,32.147c10.736,6.128,20.409,13.8,28.063,23.704
			C492.838,237.276,496.9,246.566,496.996,258.071z"/>
	</g>
</g>
</svg>
