<?xml version="1.0" encoding="utf-8"?>
<!-- Generator: Adobe Illustrator 16.0.4, SVG Export Plug-In . SVG Version: 6.00 Build 0)  -->
<!DOCTYPE svg PUBLIC "-//W3C//DTD SVG 1.1//EN" "http://www.w3.org/Graphics/SVG/1.1/DTD/svg11.dtd">
<svg version="1.1" id="Layer_1" xmlns="http://www.w3.org/2000/svg" xmlns:xlink="http://www.w3.org/1999/xlink" x="0px" y="0px"
	 width="199.975px" height="199.975px" viewBox="0 0 199.975 199.975" enable-background="new 0 0 199.975 199.975"
	 xml:space="preserve">
<g>
	<g>
		<path fill="#FEFEFE" d="M1,200.975c64.778-0.001,129.558-0.05,194.336,0.103c4.563,0.011,5.751-1.177,5.74-5.74
			C200.925,130.558,200.974,65.779,200.975,1c1.969-0.154,0.948,1.369,0.949,1.996c0.054,65.411,0.034,130.821,0.116,196.231
			c0.003,2.354-0.459,2.816-2.812,2.813c-65.411-0.083-130.821-0.062-196.232-0.117C2.368,201.923,0.846,202.943,1,200.975z"/>
		<path fill="#FAAF40" d="M200.975,1C135.649,1,70.325,1.034,5,0.903C1.576,0.896,0.896,1.575,0.903,5
			C1.034,70.324,1,135.649,1,200.975c1.557,0.9,3.264,0.479,4.897,0.48c63.312,0.023,126.625,0.021,189.938,0.019
			c5.63,0,5.639-0.009,5.639-5.641c0.001-63.312,0.004-126.625-0.02-189.938C201.454,4.263,201.875,2.557,200.975,1z
			 M174.656,133.938c-0.587,12.136-4.521,23.174-14.612,31.072c-9.529,5.772-20.021,6.972-30.943,7.409
			c-19.741,0.789-39.474,0.451-59.209,0.503c-6.104,0.016-12.246-0.28-18.232-1.785c-14.348-5.309-22.196-16.098-24.524-30.715
			c-2.818-17.689-1.038-35.59-1.211-53.397c-0.078-7.979-0.34-15.98,0.842-23.948C29.752,42.927,43.08,28.979,63.221,27.19
			c25.247-2.244,50.641-2.208,75.884,0.056c20.785,1.862,34.618,18.338,35.762,40.756
			C175.986,89.982,175.715,111.977,174.656,133.938z"/>
		<g>
			<path fill="#FAAF40" d="M161.097,66.496c-1.037-14.849-9.019-23.648-23.785-25.751c-12.038-1.713-24.25-1.368-36.405-0.675
				c-10.66,0-21.332-0.331-31.979,0.075C50.75,40.84,41.159,50.472,39.973,68.519c-1.424,21.646-0.781,43.294,0.119,64.927
				c0.646,15.545,9.823,26.08,23.97,27.288c23.94,2.043,47.949,1.585,71.883,0.064c14.705-0.936,23.764-9.849,25.021-24.471
				C162.965,113.089,162.722,89.766,161.097,66.496z M138.886,102.922c-0.616,19.653-17.829,36.832-38.861,36.331
				c-21.435-0.258-38.183-17.636-37.926-39.353c0.247-20.889,18.178-38.042,39.284-37.577
				C123.333,62.805,139.603,80.062,138.886,102.922z M140.844,69.848c-4.834,0.102-9.084-3.835-9.229-8.55
				c-0.159-5.151,3.825-9.368,8.844-9.357c5.005,0.01,8.786,3.741,8.851,8.734C149.372,65.678,145.617,69.749,140.844,69.848z"/>
			<path fill="#FAAF40" d="M100.157,75.919c-13.452-0.006-24.276,10.922-24.26,24.495c0.018,14.193,10.772,24.937,24.903,24.875
				c13.915-0.061,25.183-11.102,24.971-24.466C125.545,86.439,114.732,75.927,100.157,75.919z"/>
		</g>
	</g>
</g>
<rect x="0" y="0" fill="#FAAF40" width="12" height="199.975"/>
<rect x="0" y="0" fill="#FAAF40" width="199.975" height="12.247"/>
<rect x="196.006" y="195.559" fill="#FAAF40" width="4.109" height="4.521"/>
</svg>
