<?xml version="1.0" encoding="utf-8"?>
<!-- Generator: Adobe Illustrator 16.0.4, SVG Export Plug-In . SVG Version: 6.00 Build 0)  -->
<!DOCTYPE svg PUBLIC "-//W3C//DTD SVG 1.1//EN" "http://www.w3.org/Graphics/SVG/1.1/DTD/svg11.dtd">
<svg version="1.1" id="Layer_1" xmlns="http://www.w3.org/2000/svg" xmlns:xlink="http://www.w3.org/1999/xlink" x="0px" y="0px"
	 width="78.697px" height="78.697px" viewBox="0 0 78.697 78.697" enable-background="new 0 0 78.697 78.697" xml:space="preserve">
<g>
	<g>
		<path fill="#FAAF40" d="M78.851,42.27c-0.042,0.016-0.087,0.022-0.134,0.021c-0.016-0.575-0.117-1.158,0.134-1.714
			C78.851,41.142,78.851,41.705,78.851,42.27z"/>
		<path fill="#FAAF40" d="M78.851,37.198c-0.168-0.394-0.052-0.805-0.073-1.207c-0.077-1.375-0.083-2.759-0.326-4.115
			c-0.804-4.479-2.488-8.633-4.764-12.555c-2.441-4.207-5.662-7.744-9.408-10.817c-3.375-2.768-7.163-4.819-11.243-6.328
			c-2.278-0.842-4.605-1.54-7.043-1.764c-1.393-0.128-2.793-0.127-4.186-0.258c-1.537,0-3.074,0-4.611,0
			c-0.342,0.155-0.702,0.054-1.052,0.073c-1.427,0.084-2.862,0.073-4.27,0.325c-4.479,0.803-8.633,2.487-12.555,4.764
			c-4.207,2.441-7.744,5.662-10.817,9.409c-2.769,3.375-4.82,7.163-6.328,11.242c-0.842,2.278-1.53,4.606-1.768,7.043
			c-0.135,1.393-0.121,2.794-0.254,4.186c0,1.537,0,3.074,0,4.611c0.169,0.394,0.052,0.805,0.074,1.207
			c0.076,1.374,0.082,2.759,0.326,4.113c0.803,4.48,2.486,8.635,4.763,12.557c2.441,4.207,5.662,7.743,9.409,10.815
			c3.375,2.769,7.162,4.82,11.242,6.328c2.278,0.842,4.606,1.54,7.044,1.764c1.392,0.129,2.793,0.127,4.185,0.259
			c1.537,0,3.074,0,4.611,0c0.342-0.155,0.702-0.054,1.055-0.074c1.425-0.086,2.864-0.076,4.271-0.327
			c3.889-0.692,7.526-2.098,11.027-3.908c4.36-2.255,8.045-5.36,11.294-8.985c2.453-2.737,4.406-5.83,5.969-9.167
			c2.111-4.505,3.473-9.177,3.351-14.202c0.042-0.534-0.088-1.078,0.076-1.607C78.851,39.452,78.851,38.325,78.851,37.198z
			 M56.835,56.81c-0.514,1.052-1.729,1.622-2.838,1.268c-0.479-0.154-0.932-0.421-1.373-0.676c-3.578-2.07-7.415-3.438-11.463-4.232
			c-4.636-0.912-9.303-0.983-13.992-0.528c-2.831,0.274-5.619,0.806-8.401,1.369c-1.362,0.276-2.583-0.488-2.9-1.761
			c-0.349-1.397,0.298-2.779,1.602-3.163c2.089-0.611,4.243-0.935,6.394-1.255c0.86-0.128,1.725-0.232,2.59-0.316
			c2.013-0.198,4.032-0.325,6.057-0.327c7.032,0.001,13.79,1.265,20.146,4.376c1.148,0.562,2.294,1.144,3.344,1.877
			C57.049,54.174,57.392,55.67,56.835,56.81z M61.499,46.367c-0.898,1.399-2.608,1.815-4.18,0.908
			c-4.722-2.729-9.771-4.562-15.122-5.54c-8.042-1.468-16.033-1.314-23.936,0.947c-1.815,0.52-3.466-0.346-3.971-2.035
			c-0.54-1.809,0.311-3.54,2.131-4.073c4.411-1.292,8.911-2.09,13.52-2.179c0.665-0.014,1.331-0.001,1.997-0.001
			c8.742-0.027,17.128,1.638,25.03,5.459c1.266,0.61,2.527,1.246,3.676,2.066C62.055,42.929,62.424,44.93,61.499,46.367z
			 M67.312,33.181c-0.658,1.984-2.958,3.04-4.86,2.169c-1.719-0.788-3.344-1.764-5.102-2.485c-4.404-1.81-8.984-2.942-13.682-3.627
			c-5.056-0.738-10.139-0.986-15.243-0.649c-4.018,0.266-7.987,0.822-11.871,1.919c-2.25,0.636-4.207-0.291-4.863-2.267
			c-0.721-2.168,0.368-4.349,2.56-5c3.467-1.03,7.016-1.649,10.61-2.035c2.602-0.279,5.214-0.295,7.809-0.376
			c5.764,0.007,11.464,0.518,17.086,1.75c5.42,1.189,10.655,2.9,15.492,5.688C67.229,29.409,67.977,31.177,67.312,33.181z"/>
	</g>
</g>
</svg>
