<?xml version="1.0" encoding="utf-8"?>
<!-- Generator: Adobe Illustrator 16.0.4, SVG Export Plug-In . SVG Version: 6.00 Build 0)  -->
<!DOCTYPE svg PUBLIC "-//W3C//DTD SVG 1.1//EN" "http://www.w3.org/Graphics/SVG/1.1/DTD/svg11.dtd">
<svg version="1.1" id="Layer_1" xmlns="http://www.w3.org/2000/svg" xmlns:xlink="http://www.w3.org/1999/xlink" x="0px" y="0px"
	 width="78.697px" height="78.697px" viewBox="0 0 78.697 78.697" enable-background="new 0 0 78.697 78.697" xml:space="preserve">
<g>
	<g>
		<path fill="#FAAF40" d="M37.197,0.154c1.537,0,3.074,0,4.611,0c1.393,0.131,2.793,0.13,4.186,0.258
			c2.437,0.224,4.765,0.922,7.043,1.764c4.08,1.508,7.868,3.56,11.243,6.328c3.746,3.073,6.967,6.61,9.408,10.817
			c2.276,3.922,3.96,8.076,4.764,12.555c0.243,1.356,0.249,2.74,0.326,4.115c0.022,0.402-0.095,0.813,0.073,1.207
			c0,1.127,0,2.254,0,3.381c-0.164,0.529-0.034,1.073-0.076,1.607c0.122,5.026-1.239,9.698-3.35,14.202
			c-1.563,3.337-3.516,6.43-5.969,9.167c-3.249,3.625-6.934,6.731-11.294,8.986c-3.501,1.81-7.139,3.216-11.027,3.908
			c-1.408,0.251-2.847,0.241-4.272,0.327c-0.352,0.021-0.713-0.081-1.055,0.074c-1.537,0-3.074,0-4.611,0
			c-1.392-0.131-2.793-0.13-4.185-0.258c-2.437-0.224-4.765-0.922-7.043-1.764c-4.081-1.508-7.868-3.56-11.243-6.328
			c-3.747-3.072-6.967-6.609-9.409-10.816c-2.276-3.922-3.96-8.076-4.763-12.556c-0.244-1.355-0.25-2.74-0.326-4.114
			c-0.022-0.402,0.095-0.813-0.074-1.207c0-1.537,0-3.074,0-4.611c0.133-1.392,0.119-2.793,0.254-4.185
			c0.237-2.437,0.926-4.765,1.768-7.043c1.507-4.08,3.559-7.868,6.328-11.243c3.073-3.747,6.61-6.967,10.817-9.409
			c3.922-2.276,8.076-3.961,12.555-4.763c1.407-0.252,2.843-0.242,4.269-0.326C36.495,0.208,36.855,0.309,37.197,0.154z"/>
		<path fill-rule="evenodd" clip-rule="evenodd" fill="#FEFEFE" d="M37.197,0.154c-1.465,0.197-2.942,0.334-4.394,0.602
			C20.832,2.964,11.73,9.343,5.489,19.76c-3.085,5.148-4.778,10.771-5.204,16.767c-0.016,0.225-0.086,0.447-0.131,0.67
			c0-12.143,0.004-24.286-0.015-36.428c0-0.526,0.104-0.63,0.63-0.629C12.911,0.158,25.054,0.154,37.197,0.154z"/>
		<path fill-rule="evenodd" clip-rule="evenodd" fill="#FEFEFE" d="M78.851,37.197c-0.268-1.482-0.323-2.99-0.59-4.476
			c-1.478-8.236-5.169-15.318-11.114-21.189C60.556,5.022,52.595,1.349,43.396,0.334c-0.529-0.058-1.079,0.053-1.589-0.181
			c12.144,0,24.286,0.004,36.429-0.015c0.526-0.001,0.63,0.103,0.629,0.629C78.847,12.911,78.851,25.054,78.851,37.197z"/>
		<path fill-rule="evenodd" clip-rule="evenodd" fill="#FEFEFE" d="M0.154,41.808c0.268,1.482,0.324,2.99,0.59,4.476
			c1.479,8.236,5.169,15.318,11.114,21.189c6.591,6.51,14.552,10.183,23.75,11.197c0.53,0.059,1.079-0.053,1.588,0.181
			c-12.143,0-24.286-0.004-36.428,0.015c-0.526,0.001-0.63-0.103-0.63-0.629C0.158,66.094,0.154,53.95,0.154,41.808z"/>
		<path fill-rule="evenodd" clip-rule="evenodd" fill="#FEFEFE" d="M41.808,78.851c1.467-0.197,2.943-0.334,4.396-0.602
			c11.979-2.21,21.087-8.596,27.322-19.023c3.107-5.197,4.821-10.871,5.191-16.934c0.024-0.123,0.068-0.131,0.133-0.022
			c0,11.988-0.004,23.978,0.015,35.967c0.001,0.526-0.103,0.63-0.629,0.629C66.094,78.847,53.951,78.851,41.808,78.851z"/>
		<path fill-rule="evenodd" clip-rule="evenodd" fill="#FBCC85" d="M78.851,42.27c-0.042,0.016-0.087,0.023-0.133,0.022
			c-0.016-0.575-0.118-1.158,0.133-1.714C78.851,41.142,78.851,41.705,78.851,42.27z"/>
		<path fill-rule="evenodd" clip-rule="evenodd" fill="#FEFEFE" d="M32.67,20.83c5.763,0.007,11.464,0.517,17.086,1.75
			c5.42,1.189,10.655,2.9,15.492,5.687c1.981,1.142,2.729,2.91,2.064,4.914c-0.658,1.985-2.958,3.04-4.86,2.169
			c-1.719-0.788-3.344-1.763-5.102-2.485c-4.404-1.81-8.984-2.942-13.681-3.627c-5.056-0.738-10.139-0.986-15.243-0.649
			c-4.018,0.265-7.988,0.822-11.872,1.919c-2.25,0.635-4.207-0.291-4.863-2.267c-0.721-2.168,0.368-4.349,2.56-5
			c3.467-1.03,7.015-1.649,10.61-2.035C27.463,20.927,30.075,20.911,32.67,20.83z"/>
		<path fill-rule="evenodd" clip-rule="evenodd" fill="#FEFEFE" d="M31.938,34.394c8.742-0.027,17.128,1.638,25.031,5.459
			c1.265,0.611,2.527,1.246,3.675,2.067c1.411,1.009,1.78,3.01,0.855,4.447c-0.899,1.399-2.609,1.815-4.18,0.908
			c-4.722-2.728-9.771-4.562-15.122-5.54c-8.042-1.468-16.033-1.314-23.936,0.947c-1.815,0.52-3.465-0.345-3.97-2.035
			c-0.54-1.808,0.31-3.54,2.131-4.073c4.411-1.292,8.911-2.09,13.519-2.179C30.606,34.382,31.272,34.394,31.938,34.394z"/>
		<path fill-rule="evenodd" clip-rule="evenodd" fill="#FEFEFE" d="M32.509,47.188c7.032,0.001,13.79,1.265,20.146,4.376
			c1.148,0.562,2.294,1.144,3.344,1.877s1.393,2.229,0.836,3.369c-0.514,1.052-1.729,1.622-2.838,1.268
			c-0.48-0.154-0.932-0.421-1.373-0.676c-3.578-2.07-7.415-3.437-11.463-4.232c-4.636-0.912-9.303-0.984-13.992-0.529
			c-2.831,0.275-5.619,0.806-8.402,1.37c-1.362,0.276-2.583-0.489-2.9-1.761c-0.349-1.398,0.298-2.78,1.602-3.163
			c2.088-0.612,4.243-0.935,6.393-1.255c0.86-0.128,1.725-0.233,2.59-0.317C28.465,47.317,30.484,47.19,32.509,47.188z"/>
	</g>
</g>
</svg>
