<?xml version="1.0" encoding="utf-8"?>
<!-- Generator: Adobe Illustrator 16.0.4, SVG Export Plug-In . SVG Version: 6.00 Build 0)  -->
<!DOCTYPE svg PUBLIC "-//W3C//DTD SVG 1.1//EN" "http://www.w3.org/Graphics/SVG/1.1/DTD/svg11.dtd">
<svg version="1.1" id="Layer_1" xmlns="http://www.w3.org/2000/svg" xmlns:xlink="http://www.w3.org/1999/xlink" x="0px" y="0px"
	 width="199.975px" height="199.975px" viewBox="0 0 199.975 199.975" enable-background="new 0 0 199.975 199.975"
	 xml:space="preserve">
<path fill="#FAAF40" d="M200.975,1C135.649,1,70.325,1.034,5,0.903C1.576,0.896,0.896,1.575,0.903,5
	C1.034,70.324,1,135.649,1,200.975c1.557,0.9,3.264,0.479,4.897,0.48c63.312,0.023,126.624,0.021,189.937,0.019
	c5.631,0,5.64-0.009,5.64-5.641c0.001-63.312,0.004-126.625-0.02-189.938C201.454,4.263,201.875,2.557,200.975,1z M166.178,65.237
	c-2.1,1.595-2.994,3.087-2.963,5.712c0.242,20.377-5.821,38.782-17.593,55.372c-14.268,20.104-33.617,32.048-57.914,35.853
	c-19.686,3.082-38.649,0.51-56.709-8.07c-1.289-0.613-2.877-0.89-3.855-3.161c11.086-0.919,21.868-1.713,31.542-7.13
	c3.181-1.778,6.249-3.759,9.383-5.622c0.865-0.515,1.927-0.941,1.532-2.193c-0.408-1.297-1.651-0.77-2.547-0.854
	c-12.93-1.208-20.957-8.698-26.433-20.565c4.856,0.275,9.249,0.574,14.634-1.653c-16.062-4.627-25.043-14.379-26.083-30.979
	c3.795,1.057,6.954,2.987,10.614,3.276c0.96,0.075,2.142,0.793,2.703-0.134c0.91-1.503-0.808-1.812-1.597-2.528
	c-10.963-9.942-14.258-23.4-9.306-36.585c1.207-3.212,2.138-3.179,4.18-0.872C47.119,57.932,61.046,66.76,77.36,71.953
	c6.186,1.97,12.45,3.321,18.911,3.857c2.954,0.245,4.153,0.06,3.771-3.907c-2.105-21.788,13.419-35.839,32.626-35.856
	c7.013-0.007,13.429,2.669,18.745,7.053c2.938,2.423,5.351,3.401,8.884,1.942c3.207-1.325,6.562-2.288,9.851-3.42
	c0.887-0.306,1.851-1.25,2.655-0.158c0.646,0.877,0.147,1.854-0.403,2.747c-2.552,4.121-5.295,8.031-9.851,10.24
	c-0.483,0.233-0.737,0.94-1.533,2.018c6.072-0.312,11.039-2.49,17.104-3.798C174.414,57.944,170.561,61.908,166.178,65.237z"/>
<rect x="0" y="0" fill="#FAAF40" width="8.459" height="199.975"/>
<rect x="0" y="0" fill="#FAAF40" width="199.975" height="14.629"/>
</svg>
