<?xml version="1.0" encoding="utf-8"?>
<!-- Generator: Adobe Illustrator 16.0.4, SVG Export Plug-In . SVG Version: 6.00 Build 0)  -->
<!DOCTYPE svg PUBLIC "-//W3C//DTD SVG 1.1//EN" "http://www.w3.org/Graphics/SVG/1.1/DTD/svg11.dtd">
<svg version="1.1" id="Layer_1" xmlns="http://www.w3.org/2000/svg" xmlns:xlink="http://www.w3.org/1999/xlink" x="0px" y="0px"
	 width="199.975px" height="199.975px" viewBox="0 0 199.975 199.975" enable-background="new 0 0 199.975 199.975"
	 xml:space="preserve">
<path fill="#FAB041" d="M-0.002,199.972c0-65.244,0.037-130.488-0.1-195.729c-0.007-3.604,0.741-4.352,4.345-4.345
	c65.242,0.137,130.485,0.1,195.729,0.1c0,64.779-0.049,129.561,0.105,194.34c0.01,4.564-1.18,5.75-5.742,5.74
	C129.556,199.925,64.776,199.972-0.002,199.972z M82.643,143.587c24.321,0.559,43.633-0.064,62.93-1.141
	c13.217-0.736,18.586-5.65,20.43-18.625c1.998-14.076,1.494-28.239,1.07-42.392c-0.201-6.678-0.516-13.322-3.096-19.604
	c-2.811-6.847-8.02-10.405-15.35-10.822c-31.459-1.79-62.922-1.868-94.383-0.028c-9.165,0.536-15.544,5.57-17.163,14.515
	c-3.589,19.832-3.366,39.817-0.565,59.681c1.627,11.541,6.437,15.809,18.197,16.949C65.637,143.183,76.654,143.296,82.643,143.587z"
	/>
<path fill="#FAB348" d="M121.87,96.069c-11.168,6.079-21.471,11.692-31.777,17.292c-2.219,1.205-3.001,0.268-2.99-1.996
	c0.048-10.164,0.061-20.327,0.092-30.491c0.005-1.849,0.57-3.082,2.676-1.958C100.232,84.443,110.573,90.008,121.87,96.069z"/>
<rect x="-0.102" y="-0.102" fill="#FAB041" width="9.271" height="11.887"/>
<rect x="190.449" y="187.615" fill="#FAB041" width="9.525" height="12.36"/>
</svg>
