<?xml version="1.0" encoding="utf-8"?>
<!-- Generator: Adobe Illustrator 16.0.4, SVG Export Plug-In . SVG Version: 6.00 Build 0)  -->
<!DOCTYPE svg PUBLIC "-//W3C//DTD SVG 1.1//EN" "http://www.w3.org/Graphics/SVG/1.1/DTD/svg11.dtd">
<svg version="1.1" id="Layer_1" xmlns="http://www.w3.org/2000/svg" xmlns:xlink="http://www.w3.org/1999/xlink" x="0px" y="0px"
	 width="3000px" height="1000px" viewBox="0 0 3000 1000" enable-background="new 0 0 3000 1000" xml:space="preserve">
<g>
	<g id="name-logo">
		<g>
			<path fill="#FBB041" d="M707.553,366.478c10.536,0,20.91-2.077,31.04-6.213c10.146-4.133,19.211-9.879,27.181-17.229
				c7.959-7.354,14.342-16.142,19.108-26.402c4.757-10.26,7.138-21.592,7.138-34.015c0-13.668-3.16-26.644-9.492-38.98
				c-6.312-12.301-15.458-22.595-27.465-30.899l-67.405-45.643c4.559-7.663,10.562-13.511,18.019-17.558
				c7.447-4.014,15.321-6.057,23.608-6.057c4.756,0,9.369,0.623,13.813,1.867c4.453,1.247,8.754,3.323,12.891,6.213l4.982-7.129
				c-4.776-3.321-9.906-5.762-15.374-7.318c-5.491-1.539-10.941-2.318-16.312-2.318c-7.043,0-13.972,1.399-20.806,4.187
				c-6.836,2.803-12.898,6.661-18.168,11.643c-5.276,4.983-9.533,10.884-12.731,17.718c-3.229,6.817-4.831,14.376-4.831,22.683
				c0,9.289,2.139,18.148,6.369,26.539c4.25,8.375,10.303,15.259,18.167,20.659l84.794,57.129
				c-1.662,9.531-4.818,18.113-9.481,25.795c-4.646,7.647-10.398,14.238-17.224,19.708c-6.826,5.501-14.405,9.723-22.676,12.732
				c-8.295,3.011-16.763,4.498-25.467,4.498c-7.248,0-14.377-1.039-21.436-3.095c-7.035-2.077-13.859-5.4-20.492-9.948l-4.966,7.146
				c7.248,4.756,14.853,8.356,22.827,10.708C691.125,365.283,699.268,366.478,707.553,366.478z"/>
		</g>
		<g>
			<path fill="#FBB041" d="M866.24,181.386c14.292,16.35,25.51,35.089,33.686,56.197c8.184,21.124,12.283,43.389,12.283,66.782
				h8.376c0-23.393,4.072-45.658,12.248-66.782c8.199-21.108,19.43-39.847,33.702-56.197v181.665h47.828V131.386
				c-11.995,7.251-23.226,15.364-33.687,24.378c-10.465,9.013-19.893,18.945-28.27,29.793c-8.38,10.883-15.675,22.804-21.886,35.746
				c-6.211,12.923-10.984,26.955-14.28,42.042c-3.105-14.881-7.72-28.807-13.826-41.75c-6.106-12.924-13.408-24.896-21.884-35.863
				c-8.495-10.969-18.012-20.955-28.575-29.967c-10.578-9.014-21.749-17.127-33.558-24.378v231.665h47.84V181.386H866.24z"/>
		</g>
		<g>
			<path fill="#FBB041" d="M1046.045,363.051l26.401-67.078h79.181l28.572,67.078h52.804l-97.218-228.255h-52.787l22.987,53.427
				l-69.259,174.829L1046.045,363.051L1046.045,363.051z M1110.631,199.71l37.586,87.562h-72.363L1110.631,199.71z"/>
		</g>
		<g>
			<polygon fill="#FBB041" points="1408.473,354.367 1303.193,354.367 1303.193,134.795 1255.364,134.795 1255.364,363.051
				1408.473,363.051 			"/>
		</g>
		<g>
			<polygon fill="#FBB041" points="1583.943,354.367 1478.648,354.367 1478.648,134.795 1430.826,134.795 1430.826,363.051
				1583.943,363.051 			"/>
		</g>
		<g>
			<polygon fill="#FBB041" points="1755.657,363.051 1803.193,363.051 1803.193,143.48 1870.266,143.48 1870.266,134.795
				1688.574,134.795 1688.574,143.48 1755.657,143.48 			"/>
		</g>
		<g>
			<rect x="1892.615" y="134.483" fill="#FBB041" width="47.839" height="228.567"/>
		</g>
		<g>
			<path fill="#FBB041" d="M2010.637,181.386c14.291,16.35,25.51,35.089,33.695,56.197c8.191,21.124,12.257,43.389,12.257,66.782
				h8.382c0-23.393,4.083-45.658,12.258-66.782c8.201-21.108,19.432-39.847,33.729-56.197v181.665h47.83V131.386
				c-12.042,7.251-23.255,15.364-33.721,24.378c-10.468,9.013-19.862,18.945-28.252,29.793
				c-8.376,10.883-15.693,22.804-21.904,35.746c-6.212,12.923-10.962,26.955-14.267,42.042c-3.113-14.881-7.73-28.807-13.822-41.75
				c-6.119-12.924-13.419-24.896-21.896-35.863c-8.495-10.969-18.02-20.955-28.571-29.967
				c-10.572-9.014-21.739-17.127-33.549-24.378v231.665h47.829L2010.637,181.386L2010.637,181.386z"/>
		</g>
		<g>
			<polygon fill="#FBB041" points="2329.896,354.367 2228.969,354.367 2228.969,179.831 2358.15,179.831 2358.15,171.129
				2228.969,171.129 2228.969,143.48 2329.896,143.48 2329.896,134.795 2181.131,134.795 2181.131,363.051 2329.896,363.051 			"/>
		</g>
		<g>
			<path fill="#FBB041" d="M1449.936,540.665c-18.606-17.249-40.434-30.88-65.442-40.898c-25.044-10.001-51.696-15-79.983-15
				s-54.958,4.999-79.977,15c-25.018,10.019-46.831,23.649-65.469,40.898c-18.625,17.25-33.305,37.356-43.996,60.298
				c-10.707,22.958-16.055,47.542-16.055,73.755c0,26.574,5.348,51.42,16.055,74.535c10.691,23.131,25.371,43.233,43.996,60.293
				c18.638,17.077,40.45,30.642,65.469,40.64c25.019,10.018,51.688,15.018,79.977,15.018c28.287,0,54.939-5,79.983-15.018
				c25.01-9.998,46.836-23.562,65.442-40.64c18.649-17.061,33.322-37.163,44.006-60.293c10.703-23.115,16.048-47.961,16.048-74.535
				c0-26.212-5.345-50.797-16.048-73.755C1483.258,578.021,1468.585,557.915,1449.936,540.665z M1480.229,743.561
				c-10.181,21.399-23.899,40.053-41.14,55.899c-17.268,15.866-37.45,28.391-60.573,37.528
				c-23.115,9.135-47.804,13.719-74.007,13.719c-22.095,0-42.96-3.186-62.631-9.567c-19.681-6.385-37.787-15.45-54.369-27.18
				V535.994c16.582-11.714,34.688-20.778,54.369-27.161c19.671-6.369,40.536-9.587,62.631-9.587
				c26.203,0,50.892,4.584,74.007,13.719c23.123,9.152,43.307,21.662,60.573,37.545c17.239,15.85,30.959,34.499,41.14,55.882
				c10.174,21.403,15.279,44.189,15.279,68.325C1495.508,699.216,1490.402,722.174,1480.229,743.561z"/>
		</g>
		<g>
			<polygon fill="#FBB041" points="1626.979,484.766 1547.244,484.766 1547.244,865.203 1802.423,865.203 1802.423,850.707
				1626.979,850.707 			"/>
		</g>
		<g>
			<polygon fill="#FBB041" points="1919.396,499.247 2087.635,499.247 2087.635,484.766 1839.708,484.766 1839.708,865.203
				2087.635,865.203 2087.635,850.707 1919.396,850.707 1919.396,559.819 2134.729,559.819 2134.729,545.319 1919.396,545.319
				"/>
		</g>
		<g>
			<path fill="#FBB041" d="M2522.91,540.665c-18.607-17.249-40.441-30.88-65.441-40.898c-25.017-10.001-51.687-15-79.982-15
				s-54.949,4.999-79.965,15c-25.02,10.019-46.86,23.649-65.48,40.898c-18.643,17.25-33.321,37.356-43.996,60.298
				c-10.717,22.958-16.048,47.542-16.048,73.755c0,26.574,5.331,51.42,16.048,74.535c10.675,23.131,25.354,43.233,43.996,60.293
				c18.62,17.077,40.462,30.642,65.48,40.64c25.016,10.018,51.668,15.018,79.965,15.018s54.967-5,79.982-15.018
				c25-9.998,46.834-23.562,65.441-40.64c18.641-17.061,33.312-37.163,44.009-60.293c10.699-23.115,16.063-47.961,16.063-74.535
				c0-26.212-5.364-50.797-16.063-73.755C2556.225,578.021,2541.551,557.915,2522.91,540.665z M2553.23,743.561
				c-10.189,21.399-23.927,40.053-41.168,55.899c-17.26,15.866-37.457,28.391-60.545,37.528
				c-23.142,9.135-47.83,13.719-74.032,13.719c-22.076,0-42.968-3.186-62.614-9.567c-19.705-6.385-37.804-15.45-54.362-27.18
				V535.994c16.56-11.714,34.657-20.778,54.362-27.161c19.646-6.369,40.538-9.587,62.614-9.587c26.202,0,50.892,4.584,74.032,13.719
				c23.088,9.152,43.285,21.662,60.545,37.545c17.241,15.85,30.979,34.499,41.168,55.882c10.168,21.403,15.252,44.189,15.252,68.325
				C2568.482,699.216,2563.398,722.174,2553.23,743.561z"/>
		</g>
		<g>
			<polygon fill="#FBB041" points="2932.347,484.766 2932.347,757.539 2647.145,484.766 2620.248,484.766 2620.248,865.203
				2634.747,865.203 2634.747,596.567 2910.624,865.203 2946.309,865.203 2946.309,484.766 			"/>
		</g>
		<g>
			<polygon fill="#FBB041" points="363.516,757.539 78.312,484.766 51.409,484.766 51.409,865.203 65.897,865.203 65.897,596.567
				341.777,865.203 377.487,865.203 377.487,484.766 363.516,484.766 			"/>
		</g>
		<g>
			<path fill="#FBB041" d="M491.884,484.766l38.295,89.032L414.771,865.203h15.511l43.997-111.801h131.983l47.62,111.801h87.997
				L579.877,484.766H491.884z M479.971,738.906l57.979-145.955l62.622,145.955H479.971z"/>
		</g>
		<g>
			<path fill="#FBB041" d="M1020.344,526.186c-12.768-12.769-27.777-22.873-45.018-30.276c-17.277-7.44-35.546-11.144-54.873-11.144
				c-21.755,0-42.457,4.826-62.119,14.48c-19.672,9.672-36.056,23.134-49.164,40.38l-16.055-56.92l-13.971,2.06v380.438h79.717
				V753.402c9.316,4.481,19.134,7.941,29.498,10.362c10.336,2.39,21.037,3.619,32.093,3.619c19.327,0,37.596-3.705,54.873-11.142
				c17.239-7.424,32.25-17.51,45.018-30.28c12.761-12.769,22.845-27.769,30.277-45.035c7.411-17.249,11.125-35.518,11.125-54.86
				c0-19.325-3.714-37.613-11.125-54.862C1043.188,553.954,1033.104,538.938,1020.344,526.186z M1037.679,675.513
				c-6.722,15.348-15.864,28.809-27.431,40.364c-11.559,11.557-25.034,20.709-40.355,27.441
				c-15.371,6.693-31.852,10.083-49.438,10.083c-11.056,0-21.824-1.471-32.36-4.393c-10.512-2.942-20.262-6.992-29.23-12.181
				V515.285c18.625-10.675,39.143-16.039,61.591-16.039c17.588,0,34.067,3.393,49.438,10.104
				c15.321,6.73,28.799,15.797,40.355,27.183c11.564,11.367,20.709,24.756,27.431,40.104c6.732,15.363,10.097,31.833,10.097,49.432
				C1047.773,643.662,1044.411,660.148,1037.679,675.513z"/>
		</g>
	</g>

		<line fill="#FAAF42" stroke="#FAAF42" stroke-width="5" stroke-linecap="round" stroke-miterlimit="10" x1="420.245" y1="429.077" x2="2602.277" y2="429.077"/>
</g>
</svg>
